<?xml version="1.0" encoding="UTF-8" standalone="no"?>
<svg
   xmlns:dc="http://purl.org/dc/elements/1.1/"
   xmlns:cc="http://creativecommons.org/ns#"
   xmlns:rdf="http://www.w3.org/1999/02/22-rdf-syntax-ns#"
   xmlns:svg="http://www.w3.org/2000/svg"
   xmlns="http://www.w3.org/2000/svg"
   xmlns:sodipodi="http://sodipodi.sourceforge.net/DTD/sodipodi-0.dtd"
   xmlns:inkscape="http://www.inkscape.org/namespaces/inkscape"
   version="1.1"
   id="svg46"
   width="462.23175"
   height="168.67041"
   viewBox="0 0 462.23175 168.67041"
   sodipodi:docname="Pokemon_logo.svg"
   inkscape:version="1.0.2 (e86c8708, 2021-01-15)">
  <metadata
     id="metadata52">
    <rdf:RDF>
      <cc:Work
         rdf:about="">
        <dc:format>image/svg+xml</dc:format>
        <dc:type
           rdf:resource="http://purl.org/dc/dcmitype/StillImage" />
        <dc:title></dc:title>
      </cc:Work>
    </rdf:RDF>
  </metadata>
  <defs
     id="defs50" />
  <sodipodi:namedview
     pagecolor="#ffffff"
     bordercolor="#666666"
     borderopacity="1"
     objecttolerance="10"
     gridtolerance="10"
     guidetolerance="10"
     inkscape:pageopacity="0"
     inkscape:pageshadow="2"
     inkscape:window-width="2112"
     inkscape:window-height="1245"
     id="namedview48"
     showgrid="false"
     inkscape:zoom="2.4109361"
     inkscape:cx="301.53085"
     inkscape:cy="38.243376"
     inkscape:window-x="1575"
     inkscape:window-y="50"
     inkscape:window-maximized="0"
     inkscape:current-layer="g54"
     fit-margin-top="0"
     fit-margin-left="0"
     fit-margin-right="0"
     fit-margin-bottom="0" />
  <g
     inkscape:groupmode="layer"
     inkscape:label="Image"
     id="g54"
     transform="translate(-29.961614,-112.91231)">
    <path
       style="fill:#000000;stroke-width:1.33333"
       d="m 75.919837,246.06384 c -8.614338,-19.53539 -15.959623,-36.60281 -16.322855,-37.92763 -0.441023,-1.60853 -1.377369,-2.11196 -2.818528,-1.51538 -6.115873,2.53166 -6.293782,2.37234 -16.62675,-14.88939 l -10.19009,-17.02305 2.623821,-2.79294 c 4.752982,-5.0593 23.64823,-15.55489 35.125918,-19.51108 28.456343,-9.80848 52.382607,-7.12264 67.029667,7.5244 6.54205,6.54207 10.54068,16.96996 9.49542,24.7629 -0.38262,2.85264 -0.42886,5.18662 -0.1028,5.18662 0.32611,0 3.04558,-1.25125 6.04327,-2.78056 2.99769,-1.52932 8.6738,-3.11325 12.61355,-3.51988 5.6016,-0.57813 7.1632,-1.23966 7.1632,-3.03453 0,-1.69219 -0.82575,-2.13739 -3.14287,-1.69444 -2.65525,0.50759 -3.27584,-0.0641 -4,-3.68489 -0.4714,-2.35714 -0.85711,-7.41958 -0.85711,-11.24987 0,-6.77167 0.13822,-7.02432 5,-9.14063 4.52783,-1.97092 42.17027,-14.22853 43.69505,-14.22853 0.35106,0 0.63828,0.87976 0.63828,1.95503 0,1.57614 0.87984,1.43592 4.53994,-0.72359 l 4.53994,-2.67863 12.81776,11.39026 c 7.04978,6.26465 13.14626,11.39026 13.54772,11.39026 0.40147,0 1.9092,-0.63112 3.35052,-1.40248 2.59952,-1.39122 2.59895,-1.43284 -0.0716,-5.18336 -2.37618,-3.33704 -2.45625,-3.9767 -0.68204,-5.44917 1.1056,-0.91756 8.12512,-8.83517 15.59892,-17.59469 12.97077,-15.2021 20.14268,-21.24272 22.34116,-18.81709 3.83477,4.231 15.78669,23.87319 14.99576,24.64455 -0.53792,0.52459 -5.99927,3.62971 -12.13633,6.90026 l -11.15831,5.94645 7.15831,1.52928 c 3.93706,0.84111 9.42932,3.02852 12.20501,4.86093 5.63152,3.71771 7.61996,3.31768 7.61996,-1.53297 0,-5.65712 6.71797,-8.54943 20,-8.61064 7.29305,-0.0336 12.52165,-0.73153 14.66666,-1.95773 2.29731,-1.31327 7.7405,-1.92019 17.51306,-1.95275 l 14.17966,-0.0472 3.02391,19.66666 c 1.66315,10.81667 3.17413,19.85852 3.35773,20.09302 0.18362,0.23449 2.73692,-0.79962 5.67403,-2.29802 2.93711,-1.4984 7.79524,-3.11693 10.79587,-3.59676 l 5.45569,-0.8724 v -11.00116 c 0,-10.87649 0.0437,-11.01926 3.85807,-12.59922 3.26317,-1.35166 6.91245,-0.94779 23.66666,2.61918 13.47147,2.86808 20.47877,4.98683 21.90341,6.62279 1.55702,1.78797 2.692,2.07133 4.42096,1.10377 2.88603,-1.6151 38.4818,6.77275 37.7116,8.88643 -0.27572,0.75664 -8.11948,24.26527 -17.4306,52.2414 -20.13049,60.48396 -17.18341,56.55727 -37.39412,49.82407 l -12.73598,-4.243 v -5.0613 -5.0613 l -10.05447,-1.49542 c -5.52994,-0.82253 -11.30629,-1.49546 -12.8363,-1.49546 -2.53607,0 -2.72504,-0.59112 -2.13894,-6.6908 l 0.6429,-6.6908 -4.80659,0.86592 c -6.77507,1.22053 -7.14703,1.61636 -6.21045,6.60868 0.7381,3.93445 0.39425,4.68252 -2.94632,6.41 -3.23858,1.67473 -5.11342,1.70537 -13.04922,0.21324 -5.097,-0.95836 -13.5997,-2.46283 -18.89489,-3.34324 -9.53417,-1.58523 -9.63609,-1.64595 -10.50095,-6.25603 -0.75358,-4.01694 -1.28738,-4.55133 -3.89306,-3.89734 -2.23788,0.56166 -3.57776,-0.0937 -5.17497,-2.5314 -1.89723,-2.89554 -2.55446,-3.1074 -5.49012,-1.76982 -2.59075,1.18042 -7.05672,0.98026 -20.01411,-0.89704 l -16.67921,-2.41652 0.80644,-4.80242 c 0.44354,-2.64134 1.10828,-5.89588 1.47718,-7.23231 0.62307,-2.2572 0.40159,-2.29081 -3.11642,-0.47311 -2.08294,1.07624 -6.33716,2.64282 -9.45383,3.48128 l -5.66667,1.5245 v 13.12017 13.12019 l -3.83009,1.58648 c -3.56741,1.47766 -5.67076,0.66528 -30.66666,-11.8446 l -26.83658,-13.43107 v 9.30544 c 0,9.07753 -0.10226,9.35833 -4.17504,11.46445 -3.83381,1.98254 -24.41573,5.82916 -31.49162,5.88556 -2.60992,0.0208 -3,-0.66238 -3,-5.25434 v -5.27826 l -6.33333,3.92895 c -7.60488,4.71776 -16.9132,6.67273 -24.64803,5.17668 -3.12692,-0.6048 -6.16101,-1.12577 -6.74243,-1.15771 -0.58141,-0.032 -4.11421,-2.90806 -7.85065,-6.3914 -4.60024,-4.28861 -6.53763,-5.4724 -6.00089,-3.66666 0.43596,1.46666 1.81925,6.82634 3.07398,11.91041 l 2.28134,9.24375 -3.08803,2.08958 c -1.69841,1.14927 -10.43247,4.57308 -19.40903,7.60847 l -16.32101,5.51888 z m 36.129663,17.63724 c 3.61397,-1.19748 7.00617,-2.5628 7.53822,-3.03404 0.53205,-0.47125 -1.34898,-9.6208 -4.18007,-20.33235 l -5.14745,-19.47552 6.48376,-4.94458 c 8.02079,-6.11674 16.39246,-18.40492 18.48694,-27.1357 2.87934,-12.00244 -2.97859,-23.5629 -15.15098,-29.90005 -7.48097,-3.89472 -27.16557,-4.7646 -39.9828,-1.76687 -11.065084,2.58794 -31.482734,11.89835 -31.461724,14.3465 0.0083,0.96424 2.567997,6.04342 5.688271,11.28708 l 5.673227,9.53393 3.676678,-1.92641 c 2.022174,-1.05952 4.144412,-1.63734 4.716087,-1.28402 0.571674,0.35331 8.732447,17.77994 18.135051,38.72582 9.402606,20.94588 17.51376,38.08342 18.02479,38.08342 0.51103,0 3.88603,-0.97974 7.5,-2.17721 z m -9.87762,-67.34615 c -5.032134,-16.79117 -4.940484,-17.08901 5.26866,-17.12289 8.95543,-0.0297 13.17981,3.64853 13.17981,11.47591 0,7.41506 -2.47961,12.36085 -8.49911,16.95214 -2.56096,1.95335 -4.84633,3.54859 -5.07859,3.54499 -0.23226,-0.004 -2.42411,-6.68617 -4.87077,-14.85015 z m 11.46736,-0.81442 c 1.65767,-4.75519 -0.15229,-9.66222 -3.5639,-9.66222 -3.90877,0 -4.29744,1.67572 -1.97177,8.5012 2.26646,6.6517 3.52928,6.91655 5.53567,1.16102 z m 354.74044,23.73378 14.65308,-43.93733 -10.02402,-2.23013 c -7.04711,-1.56784 -10.28966,-1.80035 -10.91846,-0.78291 -0.49193,0.79597 -2.59697,8.52133 -4.67785,17.16747 -2.08088,8.64613 -4.20056,16.18042 -4.7104,16.74288 -0.50984,0.56245 -2.82585,-8.07662 -5.14672,-19.19794 -2.32085,-11.12132 -4.42344,-20.42428 -4.6724,-20.67325 -0.5258,-0.52579 -25.47057,-5.72123 -25.81511,-5.37671 -0.12693,0.12694 -0.62404,1.79786 -1.10477,3.71326 -0.70385,2.80437 -0.33549,3.62337 1.89163,4.20577 2.35898,0.61689 2.76568,1.76041 2.76568,7.7764 0,5.52156 0.79622,8.20323 3.66666,12.34929 3.27016,4.72342 3.66323,6.46139 3.63491,16.07167 -0.0343,11.63484 -1.53507,15.81889 -8.53287,23.78895 -2.47246,2.81598 -4.17988,6.59525 -4.77621,10.5719 l -0.92813,6.18919 7.61606,0.95157 c 5.16588,0.64543 7.91534,0.46734 8.5463,-0.55357 0.51162,-0.82783 2.3949,-10.05529 4.18508,-20.50549 l 3.25486,-19.00035 0.36178,26.40965 0.36177,26.40967 4.30489,1.87148 c 2.3677,1.02932 5.9038,1.89497 7.85803,1.92368 3.48748,0.0512 3.82391,-0.75973 18.20621,-43.88515 z m -266.09267,24.61708 5,-0.80058 v -15.93958 c 0,-8.76677 0.30571,-15.93958 0.67936,-15.93958 0.37366,0 12.77335,6.05276 27.55488,13.45056 36.51599,18.2754 33.09909,17.45528 33.09909,7.94438 v -7.87238 l -7.50844,-2.18278 c -5.87726,-1.70856 -9.12954,-3.80385 -14.97047,-9.6448 -6.92786,-6.92784 -10.80192,-9.13777 -26.62446,-15.18765 -2.96216,-1.13261 -2.5223,-1.80651 9.66699,-14.81077 l 12.77036,-13.62416 -8.29513,-8.36954 c -4.56232,-4.60324 -8.84632,-8.36953 -9.52,-8.36953 -1.43499,0 -2.58895,1.40421 -11.87312,14.44803 -6.31539,8.87282 -7.04339,9.49205 -7.83766,6.66666 -0.48157,-1.71308 -0.9354,-7.16469 -1.00849,-12.11469 -0.0921,-6.23776 -0.64443,-9.00129 -1.79957,-9.00423 -4.01814,-0.0107 -21.8218,5.94002 -23.33333,7.79827 -2.99627,3.68356 -2.05711,5.83693 2.1433,4.91436 3.6883,-0.81008 3.83732,-0.6372 4.66667,5.41349 0.47117,3.43767 0.86553,8.71656 0.87634,11.73087 0.0107,3.01432 0.89516,6.98057 1.96523,8.81391 8.19833,14.04612 9.60029,24.90773 4.62917,35.86437 -1.84724,4.07145 -2.418,7.33259 -1.86682,10.66667 1.21173,7.32998 1.56873,7.96666 4.17121,7.43896 1.32819,-0.26932 4.66489,-0.84994 7.41489,-1.29026 z m -31.15734,-3.26614 c 6.50268,-3.31742 14.29517,-13.16468 16.29512,-20.5919 7.5309,-27.96766 -25.17905,-41.55825 -45.2214,-18.78893 -7.79483,8.85539 -10.26231,20.01579 -6.41392,29.01005 2.30596,5.38939 8.59312,11.37391 13.63664,12.98024 5.53399,1.76255 15.47704,0.56707 21.70356,-2.60946 z m -16.51571,-23.29878 c -8.267,-8.267 -4.46409,-18.51905 8.00639,-21.584 l 4,-0.9831 -3.86856,3.33097 c -4.91817,4.23472 -4.12435,9.30563 1.84373,11.77769 3.38546,1.4023 4.52883,1.32007 7.3503,-0.52862 1.83765,-1.20408 3.3412,-2.8954 3.3412,-3.7585 0,-1.16389 0.38809,-1.18117 1.50237,-0.0669 2.09987,2.09987 0.36931,7.94716 -3.49599,11.81245 -2.4677,2.46775 -4.64644,3.21855 -9.33972,3.21855 -4.69328,0 -6.87201,-0.7508 -9.33972,-3.21851 z m 226.00638,25.87212 c 0,-0.7405 -1.33125,-2.3905 -2.95835,-3.66666 -12.39254,-9.71967 -17.01149,-20.28698 -14.38901,-32.91942 0.82965,-3.99636 3.06735,-9.54644 4.97267,-12.33349 l 3.46421,-5.06737 -2.2952,-16 c -3.3812,-23.57054 -2.64553,-22 -10.3052,-22 -7.70751,0 -7.85871,0.24365 -10.53913,16.9845 -0.96732,6.04148 -2.10179,10.65198 -2.52104,10.24556 -0.41926,-0.40641 -1.66548,-5.64944 -2.76939,-11.65117 l -2.00709,-10.91223 h -9.99291 -9.99289 l -1.59136,8 c -0.87524,4.4 -2.34169,13.26195 -3.25877,19.69322 -1.63938,11.49649 -1.61731,11.7283 1.31121,13.77952 l 2.97863,2.08632 -4.54212,5.02758 c -3.60339,3.98851 -4.73938,6.60627 -5.4965,12.66607 -0.52489,4.20116 -0.70256,7.89027 -0.39481,8.19803 1.06117,1.06116 15.9282,3.39846 17.58148,2.76404 0.9676,-0.3713 2.37533,-5.81836 3.38348,-13.09199 0.94955,-6.85087 2.15161,-12.93327 2.67127,-13.51644 0.51964,-0.58319 2.91442,3.45705 5.32173,8.97831 6.09873,13.98764 6.84856,14.26658 10.55669,3.92712 1.70861,-4.76414 3.36463,-8.40399 3.68005,-8.08856 0.31543,0.31542 1.75224,8.25222 3.19291,17.63734 1.44068,9.38512 2.80537,17.24982 3.03265,17.47711 0.53432,0.53431 14.0007,2.77019 17.90679,2.97313 1.65,0.0857 3,-0.45 3,-1.19052 z m 23.48937,-11.18982 c 10.41895,-4.85132 17.84396,-16.28896 17.84396,-27.48718 0,-10.31742 -7.59121,-19.15208 -17.76781,-20.67816 -16.8862,-2.53224 -34.23219,12.25815 -34.23219,29.18872 0,17.87232 16.65495,27.12558 34.15604,18.97662 z m -13.75264,-19.72651 c -3.84924,-1.85975 -7.37136,-9.40592 -6.32884,-13.55963 1.14888,-4.57754 5.91184,-8.64933 11.32287,-9.67977 l 4.60257,-0.87648 -3.73924,3.00983 c -4.57916,3.6859 -4.3137,7.40333 0.80035,11.20762 3.42449,2.54746 4.0166,2.61095 7.27795,0.7804 1.9526,-1.09597 3.93896,-3.48365 4.41414,-5.30596 l 0.86395,-3.31329 1.00913,3.69255 c 1.22162,4.47005 -1.19686,10.95533 -5.1067,13.69389 -3.19872,2.24047 -10.83808,2.41777 -15.11618,0.35084 z m -99.07006,0.43525 c 4.03333,-1.53178 9.62523,-4.67545 12.42643,-6.98593 l 5.09309,-4.20088 -4.42643,-4.60229 c -6.71037,-6.97699 -8.82088,-7.76919 -12.21889,-4.58648 -3.27948,3.07168 -9.10987,5.53638 -13.09661,5.53638 -2.06362,0 0.39661,-3.27301 10.24841,-13.63424 l 12.96391,-13.63424 -4.97878,-4.30381 c -18.59944,-16.07796 -52.67779,-1.39649 -52.67779,22.69437 0,22.14582 21.72781,33.1884 46.66666,23.71712 z m -29.10917,-18.1904 c -9.28511,-11.80409 4.31153,-28.00466 18.01789,-21.46856 l 4.61207,2.19934 -4.08282,4.97688 c -2.24556,2.73728 -6.68685,7.89976 -9.86957,11.47216 l -5.78673,6.49529 z m 9.82986,-10.98213 c 5.37007,-7.02281 4.14611,-8.89571 -3.29785,-5.04629 -3.37328,1.7444 -4.08951,2.92608 -4.08951,6.7472 0,2.54784 0.57252,4.63242 1.27226,4.63242 0.69974,0 3.45154,-2.85 6.1151,-6.33333 z m -34.99323,8 c -0.42436,-2.75 -0.88039,-5.14375 -1.01338,-5.31943 -0.13306,-0.17568 -1.94464,1.45794 -4.02585,3.63026 l -3.78404,3.94969 3.21457,1.28523 c 5.71279,2.28404 6.43759,1.82582 5.6087,-3.54575 z m 43.30214,-48.27636 c 15.22869,-7.79833 14.57783,-6.97459 10.20245,-12.91241 -2.08497,-2.82951 -3.97138,-5.40082 -4.19202,-5.71403 -1.18671,-1.68451 -19.04003,19.28119 -19.04003,22.35929 0,2.46819 2.08867,1.8698 13.0296,-3.73285 z m 188.79626,124.63669 c -0.45208,-1.1781 -0.44784,-2.51613 0.009,-2.97338 0.45727,-0.45727 0.84058,0.0187 0.8518,1.05749 0.0168,1.55529 0.2487,1.53567 1.31292,-0.11107 1.11387,-1.72358 1.29532,-1.68838 1.31292,0.25464 0.0281,3.11308 -2.48282,4.38935 -3.48705,1.77236 z"
       id="path58" />
    <path
       style="fill:#ffcb05;fill-opacity:1;stroke-width:0.578071"
       d="m 70.741203,144.79076 c -2.092982,-4.39391 -8.3604,-18.00401 -13.927595,-30.24468 -5.567195,-12.24066 -11.897936,-25.962628 -14.068314,-30.493263 -4.44157,-9.271716 -4.399956,-9.241101 -9.232354,-6.792339 -1.568558,0.794848 -2.974036,1.445178 -3.123285,1.445178 -0.432724,0 -7.553756,-12.042673 -9.677385,-16.365827 l -1.934084,-3.937291 1.442145,-1.14647 c 2.7655,-2.198503 15.372849,-7.945273 23.119823,-10.538638 10.024991,-3.355951 15.755551,-4.111994 27.885216,-3.678945 14.302378,0.510618 19.659805,2.345894 26.493748,9.075886 6.333542,6.237197 8.929902,13.59934 7.577432,21.486294 -1.76574,10.297017 -10.835691,23.466355 -21.57964,31.333075 l -3.845706,2.81583 1.049818,3.83181 c 5.505847,20.09613 8.963257,35.26952 8.208504,36.02427 -0.429657,0.42966 -9.310719,3.6357 -13.277549,4.79315 -1.20179,0.35067 -1.607256,-0.25292 -5.110774,-7.60804 z M 81.661057,95.476571 c 4.491372,-3.400059 6.448566,-5.808939 7.967368,-9.806104 1.331402,-3.50396 1.504298,-10.691404 0.325078,-13.513672 -1.115458,-2.669673 -3.856915,-4.763578 -7.326483,-5.595914 -3.677511,-0.882221 -11.672857,-0.505317 -13.021348,0.613831 -1.554658,1.290253 -0.729735,6.488318 2.926102,18.438162 3.351234,10.954186 4.033254,12.74721 4.848722,12.74721 0.25934,0 2.18559,-1.297581 4.280561,-2.883513 z"
       id="path941"
       transform="translate(29.961614,112.91231)" />
    <path
       style="fill:#ffcb05;fill-opacity:1;stroke-width:0.578071"
       d="m 119.471,129.89739 c -4.8211,-1.71966 -10.12739,-6.67393 -13.03675,-12.17191 -1.39938,-2.64449 -1.52949,-3.45957 -1.52949,-9.58176 v -6.69141 l 2.53978,-5.125488 c 1.94689,-3.928977 3.50331,-6.077961 6.66723,-9.205562 5.20816,-5.148372 9.19645,-7.501511 15.38456,-9.077079 4.2753,-1.088542 5.42085,-1.169627 9.112,-0.644972 13.37156,1.900615 21.57779,13.026364 19.24328,26.089461 -1.66806,9.33387 -9.3677,19.99605 -17.36748,24.04984 -5.79074,2.9344 -16.14195,4.09639 -21.01313,2.35888 z m 23.00419,-24.26901 c 4.25397,-3.24466 6.85081,-10.593701 4.61597,-13.063173 -1.20802,-1.334839 -2.01044,-1.471396 -2.01044,-0.342138 0,1.085867 -4.26541,4.868703 -5.97307,5.297299 -3.17089,0.795842 -9.05678,-3.261601 -9.05678,-6.243296 0,-2.374373 0.87679,-3.811441 4.25328,-6.971117 2.85268,-2.669505 2.90264,-2.767644 1.23839,-2.432432 -6.66689,1.342841 -11.04743,3.683495 -13.77045,7.357963 -1.41477,1.909098 -1.94596,7.039617 -1.0195,9.846818 0.7388,2.238606 4.13068,6.465416 5.98439,7.457486 3.67549,1.96707 12.64781,1.44975 15.73821,-0.90741 z"
       id="path943"
       transform="translate(29.961614,112.91231)" />
    <path
       style="fill:#ffcb05;fill-opacity:1;stroke-width:0.578071"
       d="m 162.4407,130.76542 c -0.3305,-0.61755 -0.89578,-3.02377 -1.25619,-5.34717 -0.63614,-4.10097 -0.60063,-4.3763 1.21581,-9.42699 4.95486,-13.77721 4.45966,-20.943285 -2.39066,-34.595711 -3.03911,-6.056818 -3.04745,-6.096511 -4.48583,-21.359227 -0.32348,-3.432439 -0.83824,-6.684091 -1.14391,-7.225893 -0.42345,-0.75054 -1.35218,-0.985094 -3.90055,-0.985094 -2.63307,0 -3.38506,-0.201079 -3.53416,-0.945023 -0.33533,-1.673223 2.35971,-3.952162 6.80658,-5.75568 4.5925,-1.862576 15.69698,-5.149761 17.39647,-5.149761 1.32113,0 1.56346,1.294645 2.21816,11.850464 0.2958,4.76909 0.71372,9.126303 0.92872,9.682697 0.95598,2.473916 2.39305,1.073496 10.52929,-10.260768 6.19578,-8.631092 8.39123,-11.272393 9.36961,-11.272393 0.33578,0 4.3731,3.706883 8.9718,8.237518 l 8.36129,8.237518 -8.99923,9.538178 c -11.9132,12.626642 -14.77287,16.058382 -14.55671,17.46872 0.1324,0.863895 1.67553,1.752099 6.2456,3.594891 11.33316,4.569869 15.17211,6.910936 21.9487,13.384744 6.1306,5.85668 9.56926,7.94798 16.22022,9.8647 l 5.69388,1.64091 0.1853,5.78207 c 0.23386,7.29766 -0.14336,8.63696 -2.29113,8.13448 -0.86955,-0.20343 -14.29323,-6.61647 -29.83039,-14.25117 -15.53717,-7.63471 -28.38315,-13.747533 -28.54663,-13.584055 -0.16348,0.163479 -0.42961,7.425995 -0.59141,16.138915 l -0.29417,15.84168 -5.67285,0.94213 c -7.20697,1.19691 -7.86777,1.18303 -8.59761,-0.18068 z"
       id="path945"
       transform="translate(29.961614,112.91231)" />
    <path
       style="fill:#ffcb05;fill-opacity:1;stroke-width:0.578071"
       d="m 236.41601,102.11895 c -13.26839,-3.014214 -21.38865,-12.991717 -21.38865,-26.280601 0,-12.801033 11.44136,-24.898806 26.59129,-28.116887 10.20388,-2.167462 19.27617,0.389145 27.66109,7.795007 l 2.51498,2.221324 -9.72065,10.231363 c -9.25214,9.738228 -14.09663,15.434532 -14.09663,16.575259 0,0.979899 4.33494,0.492828 7.61275,-0.855362 1.80247,-0.741372 4.56871,-2.29599 6.1472,-3.454708 4.27698,-3.139592 5.07958,-2.931002 11.11718,2.889261 2.85042,2.747812 5.18258,5.191515 5.18258,5.430451 0,0.238936 -1.88596,1.878643 -4.19102,3.643794 -4.79486,3.67177 -13.42971,7.911469 -18.93184,9.295509 -5.46011,1.37347 -13.94329,1.66036 -18.49828,0.62559 z m 11.94663,-31.467927 c 3.61747,-4.27108 6.48505,-8.042996 6.37239,-8.382036 -0.11266,-0.339041 -1.8743,-1.33734 -3.91477,-2.218444 -6.45405,-2.786957 -13.08531,-1.677581 -17.56969,2.939319 -2.70029,2.780082 -3.9381,5.524407 -4.22882,9.375606 -0.2831,3.750214 0.61239,6.266625 3.75208,10.543747 l 2.14539,2.922597 3.43309,-3.707596 c 1.8882,-2.039177 6.39285,-7.202115 10.01033,-11.473193 z"
       id="path947"
       transform="translate(29.961614,112.91231)" />
    <path
       style="fill:#ffcb05;fill-opacity:1;stroke-width:0.578071"
       d="m 237.85732,34.765971 c -0.62495,-1.011193 3.03059,-6.483227 9.01762,-13.498622 5.10058,-5.976671 8.226,-9.065841 9.12894,-9.023056 0.4166,0.01974 5.20735,6.463028 6.32537,8.507264 1.16448,2.129183 0.01,3.015242 -11.42849,8.770601 -11.27413,5.672713 -12.479,6.157102 -13.04344,5.243813 z"
       id="path949"
       transform="translate(29.961614,112.91231)" />
    <path
       style="fill:#ffcb05;fill-opacity:1;stroke-width:0.578071"
       d="m 341.625,130.45938 c -8.51069,-1.25418 -11.48174,-2.03101 -11.80415,-3.08642 -0.16405,-0.53703 -1.4919,-8.26011 -2.95077,-17.16241 -1.45887,-8.9023 -2.89293,-16.428121 -3.1868,-16.724045 -0.32813,-0.33042 -1.20781,0.947333 -2.27965,3.31122 -0.95994,2.117094 -1.74534,4.017545 -1.74534,4.223225 0,0.20568 -0.69091,1.91351 -1.53535,3.79517 -1.05742,2.35625 -1.82218,3.36844 -2.4568,3.25168 -0.54812,-0.10084 -2.85531,-4.09263 -5.69445,-9.852233 -4.58277,-9.296808 -5.97887,-11.093175 -6.73895,-8.671072 -0.1746,0.556394 -1.09698,5.623895 -2.04973,11.261115 -1.9002,11.24303 -2.8619,14.32041 -4.47356,14.31513 -1.95585,-0.006 -12.59857,-1.74011 -14.48128,-2.35901 -2.12559,-0.69874 -2.14416,-0.80695 -1.28088,-7.46479 0.87187,-6.724073 1.95777,-9.234655 6.0711,-14.036212 2.05498,-2.398812 3.73633,-4.588157 3.73633,-4.86521 0,-0.277052 -0.78633,-0.96823 -1.74741,-1.535952 -2.92093,-1.725435 -3.64742,-3.363102 -3.17879,-7.165693 0.66256,-5.376219 3.06299,-20.444022 4.39881,-27.611837 l 1.23721,-6.638736 h 9.75033 c 9.63741,0 9.75379,0.01506 10.04953,1.300661 0.16456,0.715363 0.96563,4.812444 1.78014,9.104624 1.66996,8.80005 2.54763,12.1395 3.19049,12.1395 0.53114,0 1.86057,-5.720772 3.15691,-13.584678 1.33065,-8.072107 2.44093,-11.688456 3.90294,-12.712488 1.71788,-1.203249 10.38164,-1.223164 11.57819,-0.02661 1.24041,1.240414 2.00031,4.985879 4.38163,21.596814 l 2.14152,14.938146 -2.49075,3.707725 c -5.72192,8.517668 -7.85893,18.887285 -5.64447,27.389186 1.59977,6.14194 4.10062,9.95224 10.94273,16.67239 7.91838,7.77721 7.82061,8.02332 -2.57873,6.49082 z"
       id="path951"
       transform="translate(29.961614,112.91231)" />
    <path
       style="fill:#ffcb05;fill-opacity:1;stroke-width:0.578071"
       d="m 357.94274,121.44972 c -7.35408,-1.01753 -14.16477,-6.71705 -16.30439,-13.64433 -3.01894,-9.774203 -0.2445,-19.654744 7.75966,-27.634214 6.29896,-6.279532 13.82557,-9.277657 22.27663,-8.873607 6.39157,0.305585 10.28869,2.084914 14.38642,6.568483 7.1154,7.785382 7.33534,18.80634 0.5885,29.489198 -6.25946,9.91116 -17.84167,15.59779 -28.70682,14.09447 z m 16.6381,-21.647439 c 0.8749,-0.45243 2.31147,-1.677373 3.19237,-2.722095 2.58795,-3.06924 3.29933,-5.413108 3.06305,-10.092233 -0.25891,-5.127063 -1.26224,-6.616752 -2.17456,-3.228652 -0.81341,3.020773 -2.51055,5.113909 -5.30042,6.537198 -2.08933,1.065895 -2.39117,1.085813 -3.9827,0.262801 -0.94712,-0.489776 -2.63662,-1.805087 -3.75445,-2.922913 -1.58344,-1.583441 -2.03241,-2.499377 -2.03241,-4.146283 0,-1.825646 0.45321,-2.540035 3.32391,-5.239405 l 3.32391,-3.125536 -2.89036,0.392842 c -5.75723,0.782491 -11.05459,4.190967 -12.7865,8.227209 -1.186,2.764006 -0.96701,6.429881 0.57954,9.701263 1.7886,3.783406 4.28061,6.053194 7.70023,7.013573 3.24649,0.91176 9.36641,0.56883 11.73839,-0.657769 z"
       id="path953"
       transform="translate(29.961614,112.91231)" />
    <path
       style="fill:#ffcb05;fill-opacity:1;stroke-width:0.578071"
       d="m 413.88393,148.42328 c -2.0666,-0.74843 -4.21269,-1.55116 -4.76909,-1.78387 -0.92749,-0.38791 -1.01176,-1.70397 -1.01326,-15.82466 -0.002,-15.41571 -0.57553,-37.272833 -0.96835,-36.880015 -0.11482,0.114829 -1.23458,6.165055 -2.48834,13.444935 -2.98768,17.34787 -4.48727,24.50152 -5.35541,25.54757 -0.57877,0.69737 -1.77146,0.78642 -6.49738,0.48514 -8.81126,-0.56175 -8.59632,-0.44069 -8.12826,-4.57785 0.59577,-5.26585 2.34864,-9.20517 6.32175,-14.20721 1.98597,-2.50029 4.17085,-5.84772 4.8553,-7.43876 1.82793,-4.24914 2.6103,-10.493544 2.30801,-18.421133 -0.25203,-6.609224 -0.37148,-7.177926 -2.1856,-10.405286 -4.45048,-7.917498 -4.65294,-8.481945 -4.97031,-13.85653 -0.4353,-7.371695 -0.55157,-7.717691 -2.92712,-8.710258 -2.04251,-0.853415 -2.07022,-0.909507 -1.71813,-3.478275 0.49829,-3.635427 0.72974,-3.857775 3.60538,-3.463624 6.26889,0.859247 21.96418,4.557296 22.54534,5.312024 0.35078,0.455546 1.09577,2.976826 1.65552,5.602846 4.72595,22.171329 7.64925,33.967189 8.41789,33.967189 0.66025,0 1.76574,-3.657798 5.50336,-18.209249 3.99564,-15.55598 4.3473,-16.475036 6.30383,-16.475036 1.46401,0 17.67382,3.291974 18.04691,3.665062 0.29441,0.294405 -24.90151,75.18938 -26.96364,80.14953 -2.63662,6.34202 -3.12945,6.94479 -5.66649,6.93043 -1.18495,-0.007 -3.8453,-0.62454 -5.91191,-1.37297 z"
       id="path955"
       transform="translate(29.961614,112.91231)" />
    <path
       style="fill:#3564ad;fill-opacity:1;stroke-width:0.578071"
       d="M 61.634588,167.83934 C 61.258558,167.18659 41.320942,121.73064 34.963263,107.03116 28.447089,91.965221 29.426666,93.1076 23.833062,94.051123 21.524766,94.440483 21.264826,94.340326 19.454636,92.364056 18.396194,91.208509 13.682346,83.869239 8.9794189,76.054569 L 0.4286433,61.846076 2.3744883,59.78924 C 5.4033489,56.587618 15.602544,50.158712 25.130904,45.445086 39.864114,38.156648 51.815367,34.90972 65.884939,34.372988 c 9.418408,-0.359298 14.658822,0.248537 21.352363,2.476657 12.838268,4.273557 22.311258,13.5061 25.704758,25.052342 0.58255,1.98208 0.92281,5.339172 0.92281,9.104625 0,4.389493 0.19084,5.963339 0.72259,5.959182 0.39742,-0.0029 2.15331,-0.681083 3.90198,-1.506621 4.91482,-2.320263 9.14604,-3.666754 13.57724,-4.320651 5.64188,-0.83255 7.69694,-1.566856 8.12058,-2.901606 0.60511,-1.906555 -0.79581,-2.989288 -3.34114,-2.582274 -2.1387,0.341993 -2.25443,0.274711 -3.13663,-1.823497 -1.19466,-2.841366 -1.81266,-16.702169 -0.82681,-18.544233 0.91079,-1.701833 3.72823,-3.057756 12.86755,-6.192657 6.20046,-2.12683 27.9477,-9.153476 33.87026,-10.943651 1.11318,-0.336473 1.30066,-0.179216 1.30066,1.090991 0,2.118456 1.83392,1.943897 6.00572,-0.571646 l 3.40439,-2.052807 1.50921,1.402271 c 3.72994,3.46564 22.45403,19.687099 23.63972,20.480068 1.195,0.799199 1.53726,0.78474 3.61627,-0.152761 3.7547,-1.693135 3.88159,-2.181355 1.49951,-5.769039 -1.1551,-1.739702 -2.10018,-3.320844 -2.10018,-3.513649 0,-0.192805 0.84543,-1.322902 1.87873,-2.511328 22.97026,-26.418632 29.53611,-33.3457624 33.54532,-35.3911078 1.71327,-0.87404565 2.42532,-0.9872174 3.03383,-0.48219589 2.0483,1.69993649 13.79723,20.64899469 14.47344,23.34323669 0.29434,1.172746 -0.62726,1.80967 -9.68345,6.692323 -5.50482,2.967924 -10.77699,5.857131 -11.71594,6.420462 l -1.70718,1.024236 1.70718,0.376728 c 8.50722,1.877315 11.64415,2.909006 16.61796,5.465412 3.1139,1.600462 6.29137,2.90993 7.06104,2.90993 1.58209,0 2.59621,-1.474495 2.59621,-3.774786 0,-2.38485 1.75935,-4.805318 4.4339,-6.100046 2.95705,-1.431483 7.03445,-2.048 18.39993,-2.782144 6.55869,-0.423652 9.51602,-0.877451 12.1395,-1.862793 3.15489,-1.184934 4.7095,-1.32456 17.19762,-1.544582 7.55106,-0.133038 13.7292,-0.0514 13.7292,0.181429 0,1.414648 5.95584,38.265229 6.27732,38.839688 0.28736,0.513489 1.63826,0.159501 5.0066,-1.311928 5.7222,-2.499696 10.62954,-4.039725 14.58477,-4.577002 l 3.03488,-0.412257 V 53.344893 c 0,-11.465309 0.21126,-12.199671 3.85573,-13.402452 2.95432,-0.975017 8.73454,-0.383212 20.29679,2.07808 16.92189,3.602213 23.58929,5.694092 25.50471,8.00203 0.57566,0.693626 1.51012,0.810455 4.35646,0.544659 4.23485,-0.395456 10.70992,0.658979 22.58077,3.677173 6.97422,1.773213 14.16275,4.026431 14.16275,4.439267 0,0.07008 -6.87028,20.706564 -15.26729,45.85885 -15.0239,45.00242 -18.79796,54.98264 -21.88064,57.86189 -2.76766,2.585 -4.67027,2.37855 -17.82706,-1.93441 l -12.0813,-3.96041 v -5.03885 c 0,-5.0336 -0.002,-5.03918 -1.58969,-5.36038 -3.35785,-0.67915 -18.73028,-2.66069 -20.64123,-2.66069 -2.06812,0 -3.45787,-1.40486 -2.9608,-2.99299 0.13159,-0.42046 0.39945,-2.94139 0.59524,-5.60208 l 0.35597,-4.83761 -2.76509,0.38742 c -1.52079,0.21309 -4.10231,0.76318 -5.73672,1.22244 -3.39612,0.95428 -3.84037,1.81498 -3.15351,6.10973 0.23477,1.46793 0.23727,3.18144 0.006,3.8078 -0.46877,1.26719 -5.45267,3.63951 -7.6461,3.63951 -2.34229,0 -33.88378,-5.71787 -35.08357,-6.35998 -0.61306,-0.32809 -1.3991,-1.69768 -1.74677,-3.04351 -1.46259,-5.66184 -1.54584,-5.75512 -4.69061,-5.25531 -2.20101,0.34981 -2.53244,0.14376 -5.55156,-3.45137 -1.39394,-1.65989 -2.95546,-1.93886 -4.93193,-0.88108 -0.68152,0.36474 -3.12122,0.64367 -5.42154,0.61984 -5.94946,-0.0616 -30.83975,-3.61785 -30.83034,-4.4049 0.004,-0.34957 0.52102,-3.10684 1.14854,-6.12726 0.62753,-3.02042 1.14438,-5.81685 1.14855,-6.21427 0.0115,-1.09337 -1.24407,-0.88078 -4.98067,0.84333 -1.86657,0.86125 -5.73496,2.24303 -8.59641,3.07064 l -5.20264,1.50473 -0.28904,13.2424 -0.28904,13.24241 -2.7332,1.01419 c -2.63847,0.97903 -2.86116,0.97467 -6.4246,-0.12597 -2.03049,-0.62708 -14.40795,-6.47335 -27.50569,-12.9917 -13.09774,-6.51835 -23.92864,-11.85155 -24.06867,-11.85155 -0.14002,0 -0.25459,3.62492 -0.25459,8.05537 0,4.43045 -0.25365,8.72251 -0.56366,9.53791 -0.83703,2.20155 -3.59203,3.5824 -10.39057,5.20793 -7.09184,1.69566 -20.04191,3.7751 -23.5652,3.78396 -3.09963,0.008 -3.63328,-0.9197 -3.63328,-6.31467 0,-2.24647 -0.12502,-4.0845 -0.27781,-4.0845 -0.1528,0 -1.74663,0.93959 -3.54185,2.08798 -9.93765,6.35704 -19.09803,8.39413 -29.4578,6.55087 -5.11007,-0.90922 -4.85881,-0.76834 -11.30517,-6.33877 -5.711684,-4.93556 -7.4438,-5.99234 -7.4438,-4.5415 0,0.35691 1.183584,5.17318 2.630184,10.70282 1.446601,5.52964 2.473689,10.3071 2.282411,10.61659 -0.698339,1.12994 -5.397192,3.49071 -11.583823,5.81987 -10.774863,4.05654 -26.240603,9.16122 -26.482694,8.74097 z m 18.238743,-16.06656 c 2.63941,-0.82725 6.04502,-2.03438 7.568013,-2.68251 l 2.769083,-1.17842 -0.37085,-2.66465 c -0.203973,-1.46556 -2.295487,-10.30215 -4.647816,-19.63686 -2.352334,-9.33472 -4.276965,-17.15962 -4.276965,-17.38867 0,-0.22905 1.235628,-1.2941 2.745839,-2.36677 C 95.453396,97.478716 105.10596,82.893396 106.12698,71.907542 107.31157,59.16186 97.902586,47.113159 84.03463,43.617126 80.8654,42.81818 77.498631,42.611037 67.619153,42.60715 56.707849,42.60285 54.574374,42.757832 50.142602,43.876645 40.572154,46.292734 24.091924,53.278331 20.162956,56.58434 c -2.00491,1.687018 -2.058579,2.338441 -0.455171,5.524793 0.888989,1.766633 9.017481,15.99271 10.068352,17.621126 0.0559,0.08662 1.596294,-0.628745 3.423099,-1.589696 1.826804,-0.960957 3.682873,-1.747192 4.124598,-1.747192 1.071819,0 4.543287,7.034747 17.02081,34.491779 12.162271,26.76331 19.638128,42.39172 20.278093,42.39172 0.248415,0 2.611183,-0.67684 5.250594,-1.50409 z m 344.810809,-5.43277 c 1.65168,-3.37268 28.50865,-82.142865 28.50865,-83.614456 0,-0.670187 -12.33825,-3.539722 -17.51892,-4.074415 l -3.28342,-0.338883 -0.84308,2.017788 c -0.4637,1.109781 -1.90748,6.28359 -3.20841,11.497354 -3.30168,13.232217 -5.29148,20.173901 -5.78276,20.173901 -0.48353,0 -3.03167,-10.344536 -6.59262,-26.763608 -1.36516,-6.294597 -2.71672,-11.673142 -3.00346,-11.952323 -0.65042,-0.633248 -22.11975,-5.217497 -24.43501,-5.217497 -1.38419,0 -1.81455,0.335954 -2.33205,1.820476 -1.09041,3.127934 -0.82104,5.559734 0.66603,6.012908 2.65869,0.810211 3.32391,1.957921 3.32391,5.734721 0,6.123436 1.02657,10.067472 3.77478,14.50254 3.07677,4.965316 3.70901,7.51283 3.72165,14.995676 0.0188,11.133548 -1.48687,15.891678 -7.33205,23.170198 -3.99761,4.9779 -5.10244,7.40693 -6.17181,13.56915 -0.46479,2.67838 -0.79903,4.91504 -0.74274,4.97035 0.0563,0.0553 2.1372,0.38318 4.62423,0.72859 6.20775,0.86217 11.08565,0.80622 11.86774,-0.13615 0.67598,-0.8145 3.14595,-12.81254 5.37639,-26.11614 l 1.35685,-8.092998 0.37234,5.202638 c 0.20479,2.86146 0.39989,13.56775 0.43355,23.79176 l 0.0612,18.58912 4.76909,1.77065 c 3.37216,1.25201 5.6157,1.73338 7.65944,1.64339 l 2.89036,-0.12727 z m -253.52043,-14.83519 6.13952,-0.973 0.26167,-15.50203 c 0.14392,-8.52611 0.4325,-15.672868 0.6413,-15.881667 0.2088,-0.208799 12.86392,5.806367 28.12248,13.367037 20.37863,10.09767 28.32253,13.76454 29.92671,13.81403 l 2.18387,0.0674 v -7.45062 -7.45062 l -6.06975,-1.92443 c -6.90214,-2.18836 -8.9747,-3.50692 -17.35535,-11.041548 -6.33057,-5.691483 -10.6588,-8.264103 -20.2193,-12.017983 -3.02042,-1.185954 -5.72258,-2.370654 -6.00481,-2.63267 -0.88317,-0.819919 1.3204,-3.553261 12.51109,-15.518969 5.95973,-6.372474 10.83587,-11.821299 10.83587,-12.108495 0,-0.802267 -15.51126,-15.679013 -17.10476,-16.405059 -1.9312,-0.879912 -2.96542,0.171956 -10.92571,11.112072 -3.58577,4.928059 -7.03791,9.42657 -7.67142,9.996688 -1.10755,0.996728 -1.16721,0.996728 -1.5517,0 -0.21993,-0.570118 -0.64908,-5.068629 -0.95368,-9.996688 -0.30461,-4.928058 -0.81706,-9.579403 -1.13878,-10.336321 -0.52677,-1.239355 -0.83738,-1.341614 -3.1234,-1.028281 -2.99394,0.410365 -14.33286,4.00358 -18.65423,5.911379 -2.25364,0.994938 -3.27199,1.849278 -3.984,3.342359 -1.51995,3.187383 -0.80652,4.067939 2.97931,3.677207 2.69303,-0.277945 3.25476,-0.166633 3.74064,0.74124 0.5425,1.013668 1.00299,4.575485 2.26394,17.510943 0.46692,4.789807 0.85813,6.205966 2.55509,9.249142 2.98372,5.350699 4.93684,10.535785 5.99495,15.915191 1.14897,5.841383 0.54969,10.957333 -2.05427,17.536873 -2.24828,5.68084 -2.59579,8.20875 -1.78219,12.96433 1.162,6.79191 0.7588,6.59633 10.43691,5.06253 z m 178.79605,0.0326 c 1.81093,-0.69492 0.81432,-2.24175 -5.32621,-8.26675 -6.59166,-6.46765 -9.31388,-10.5856 -10.87602,-16.4524 -2.1715,-8.155278 0.38453,-19.101349 6.45091,-27.625712 l 1.91617,-2.69257 -2.29479,-15.805715 c -2.49909,-17.212899 -3.05607,-19.91612 -4.41793,-21.441941 -1.39946,-1.567925 -11.24415,-1.47458 -12.84048,0.121751 -1.46407,1.464076 -2.57841,5.451625 -4.12575,14.763588 -0.6868,4.133211 -1.50808,8.165259 -1.82507,8.960107 l -0.57634,1.445179 -0.50505,-1.734215 c -0.27778,-0.953817 -1.16216,-5.245998 -1.96529,-9.538178 -0.80313,-4.29218 -1.58858,-8.389261 -1.74544,-9.104625 -0.28275,-1.289479 -0.37372,-1.30066 -10.58219,-1.30066 H 290.9493 l -1.8212,9.971731 c -2.5714,14.079369 -4.36562,27.259519 -3.9411,28.950933 0.19872,0.791749 1.38917,2.19544 2.64545,3.119319 l 2.28414,1.679778 -3.24578,3.718779 c -4.47458,5.12665 -5.80276,8.298175 -6.62368,15.816511 -0.56576,5.18145 -0.54638,6.28868 0.11723,6.69881 0.93476,0.57772 9.132,2.09491 14.29072,2.64501 l 3.61132,0.3851 0.81195,-1.95322 c 0.44657,-1.07427 1.63651,-6.75697 2.64429,-12.62823 1.00779,-5.871247 2.04502,-11.055039 2.30496,-11.519531 0.53954,-0.964113 1.48665,0.672702 5.84486,10.10118 3.35635,7.261081 4.43044,8.913971 5.79249,8.913971 1.43814,0 2.37649,-1.56213 4.86135,-8.093 1.85503,-4.875495 3.17849,-7.435062 3.17849,-6.147148 0,0.597015 5.13166,31.537338 5.49503,33.131168 0.31981,1.4028 2.07915,1.89451 11.84711,3.31116 6.58515,0.95504 7.71986,1.02758 8.91283,0.56979 z M 134.82522,130.1897 c 7.4948,-1.91684 11.72216,-4.84938 16.95145,-11.75929 7.40957,-9.79087 9.09036,-20.989675 4.50761,-30.033296 -4.29172,-8.469307 -14.62621,-13.188399 -25.03638,-11.432495 -11.38228,1.919867 -22.61171,11.831636 -26.06264,23.004433 -1.53087,4.956378 -1.55523,12.335788 -0.0538,16.287318 2.23906,5.8927 8.32203,12.17442 13.69563,14.14309 3.30753,1.21174 10.8255,1.11317 15.9981,-0.20976 z m 234.58681,-9.05088 c 13.26224,-3.89548 22.71383,-16.15991 22.65957,-29.403182 -0.0347,-8.484013 -3.84633,-14.866777 -11.24608,-18.832399 -3.27357,-1.75436 -4.2259,-1.97964 -9.25354,-2.189035 -4.50364,-0.187567 -6.38177,0.0029 -9.56218,0.968721 -8.25438,2.507188 -15.3897,8.67943 -19.40776,16.7882 l -2.42221,4.888241 v 6.691404 c 0,6.02174 0.15244,7.01653 1.52331,9.94017 2.6233,5.59471 6.97778,9.58986 12.24876,11.23799 3.42085,1.06964 11.67555,1.02152 15.46013,-0.0901 z M 255.7814,101.84609 c 6.26852,-1.60687 12.91258,-4.892737 18.6428,-9.219942 2.623,-1.980773 4.76909,-3.783212 4.76909,-4.005422 0,-0.551272 -8.61225,-8.941927 -10.38939,-10.122071 -2.15272,-1.429548 -4.48169,-1.172046 -6.92877,0.766077 -4.40798,3.491188 -12.74155,6.597709 -12.74155,4.749695 0,-0.925244 4.57228,-6.180144 14.67192,-16.862372 l 9.01058,-9.530345 -2.44759,-2.166744 C 263.7434,49.59007 257.88436,46.982483 250.28972,46.518842 236.45887,45.674488 222.50883,53.43239 217.0003,65.03177 c -3.54895,7.473088 -3.40036,16.412737 0.3992,24.016324 3.45601,6.916081 11.2134,12.377746 19.76713,13.917236 4.36112,0.78491 13.27805,0.24876 18.61477,-1.11924 z M 207.40417,81.428708 c 0.1955,-2.369058 -0.89156,-8.503766 -1.50686,-8.503766 -0.64621,0 -7.63402,7.157779 -7.63402,7.819705 0,0.771731 6.21147,3.152917 7.80397,2.991676 0.89494,-0.09061 1.19698,-0.611952 1.33691,-2.307615 z m 43.17459,-50.939803 c 10.57741,-5.225109 13.0066,-6.790282 13.0066,-8.38041 0,-1.642744 -6.49495,-10.405748 -7.73359,-10.434191 -1.93528,-0.04444 -14.78177,14.387462 -17.7795,19.973709 -1.598,2.977839 -1.17142,4.555304 1.09496,4.049199 0.87137,-0.194585 6.00656,-2.538323 11.41153,-5.208307 z"
       id="path957"
       transform="translate(29.961614,112.91231)" />
    <path
       style="fill:#3564ad;fill-opacity:1;stroke-width:0.578071"
       d="M 73.796797,87.23221 C 68.618836,70.399917 68.38859,68.703509 71.087582,67.271184 c 1.955346,-1.037681 11.227413,-0.630109 13.587834,0.59728 3.943291,2.050461 5.490209,4.995022 5.485299,10.441271 -0.0042,4.60411 -0.741713,7.169086 -3.047221,10.59715 -1.592597,2.368037 -8.681665,8.829467 -9.724725,8.863739 -0.190649,0.0063 -1.807036,-4.736022 -3.591972,-10.538414 z m 9.445852,-2.890357 c 1.538753,-3.389947 1.50178,-7.91144 -0.08115,-9.923808 -1.023494,-1.301163 -1.600154,-1.524848 -3.554072,-1.378618 -3.482039,0.260593 -3.821575,1.265592 -2.246685,6.650012 2.231354,7.628809 3.923376,8.967148 5.881907,4.652414 z"
       id="path959"
       transform="translate(29.961614,112.91231)" />
    <path
       style="fill:#3564ad;fill-opacity:1;stroke-width:0.578071"
       d="m 131.49604,107.24199 c -0.63587,-0.14072 -1.74799,-0.38239 -2.47137,-0.53705 -1.85198,-0.39596 -5.78572,-4.09951 -7.10867,-6.6927 -1.31889,-2.585241 -1.45195,-6.837302 -0.28459,-9.094716 1.33414,-2.579953 5.12332,-5.618194 8.65455,-6.939395 4.29551,-1.607158 5.06163,-1.523356 2.9443,0.322061 -2.64418,2.304603 -3.74947,4.296812 -3.75366,6.765745 -0.003,1.806517 0.37999,2.605991 1.96469,4.100561 1.08268,1.021093 3.1351,2.183161 4.56095,2.582374 2.24583,0.628793 2.871,0.593658 4.67581,-0.262776 1.14584,-0.543739 2.8912,-1.908712 3.87858,-3.033272 1.41193,-1.608101 1.90449,-1.872097 2.30695,-1.236463 1.79359,2.832713 -2.08864,10.738981 -6.33177,12.894811 -1.66374,0.84531 -7.19682,1.53777 -9.03577,1.13082 z"
       id="path961"
       transform="translate(29.961614,112.91231)" />
    <path
       style="fill:#3564ad;fill-opacity:1;stroke-width:0.578071"
       d="m 233.26846,82.453487 c -2.80611,-3.678996 -3.96694,-7.062385 -3.60992,-10.52157 0.7883,-7.637917 7.60069,-13.406688 15.05977,-12.752703 3.54002,0.310377 9.16459,2.619135 8.9218,3.662203 -0.21672,0.931102 -17.99071,21.644954 -18.57294,21.644954 -0.13649,0 -0.94591,-0.914798 -1.79871,-2.032884 z m 6.2386,-8.337763 c 1.46915,-1.570645 3.45574,-4.092829 4.41464,-5.604854 3.02817,-4.774935 2.01594,-6.14772 -3.11699,-4.227246 -5.53037,2.069177 -6.57636,3.736067 -6.148,9.797461 0.27247,3.855587 1.26964,3.862708 4.85035,0.03464 z"
       id="path963"
       transform="translate(29.961614,112.91231)" />
    <path
       style="fill:#3564ad;fill-opacity:1;stroke-width:0.115642"
       d="m 365.77449,100.66384 c -2.42227,-0.25364 -4.72145,-0.921331 -5.98519,-1.738125 -3.03254,-1.960029 -5.82606,-7.486136 -5.81249,-11.498227 0.008,-2.380698 1.12454,-4.642637 3.43018,-6.94929 1.72385,-1.724614 3.73503,-2.973825 6.04573,-3.755212 0.99945,-0.337974 5.71493,-1.318029 5.95562,-1.237801 0.0674,0.02245 -0.78497,0.774941 -1.89408,1.672191 -2.4011,1.942444 -3.41417,2.99575 -3.97009,4.127732 -0.53466,1.088707 -0.6907,1.963067 -0.52261,2.92833 0.34084,1.957265 1.66162,3.620606 4.51393,5.684708 2.79119,2.019873 3.74822,2.110108 6.45961,0.609047 1.23008,-0.680992 2.25604,-1.528143 3.13563,-2.589158 0.99265,-1.197392 1.43725,-2.119609 1.96656,-4.07923 0.25364,-0.939033 0.48061,-1.726778 0.50438,-1.750545 0.0887,-0.08868 1.03486,3.519893 1.12707,4.298449 0.40403,3.411568 -0.58412,7.013056 -2.75162,10.028696 -1.7515,2.436876 -3.81788,3.624975 -7.18446,4.130845 -1.20238,0.18067 -3.82812,0.2422 -5.01817,0.11759 z"
       id="path981"
       transform="translate(29.961614,112.91231)" />
  </g>
</svg>
